<svg width="66" height="28" viewBox="0 0 66 28" fill="none" xmlns="http://www.w3.org/2000/svg">
<path d="M24 13.5H3M24 13.5L25 15L26.0845 16.8075C27.2635 18.7726 27.2635 21.2274 26.0845 23.1925V23.1925C25.4117 24.3139 24.1998 25 22.8921 25H4C3.44772 25 3 24.5523 3 24V13.5M24 13.5L25 11.5L26.0352 9.63664C26.939 8.0098 26.8878 6.02042 25.9014 4.44226V4.44226C25.3407 3.54505 24.3573 3 23.2992 3H4C3.44772 3 3 3.44772 3 4V13.5" stroke="#E51B23" stroke-width="5"/>
<path d="M41 25V13.5M63 3H42C41.4477 3 41 3.44772 41 4V13.5M58.5 13.5H41" stroke="#E51B23" stroke-width="5" stroke-miterlimit="16" stroke-linecap="round"/>
</svg>
