<svg width="94" height="141" viewBox="0 0 94 141" fill="none" xmlns="http://www.w3.org/2000/svg">
<rect width="94" height="141" fill="#D9D9D9"/>
<path d="M51 67H32L32.937 73.4617C33.0598 74.3085 34.233 74.4285 34.5246 73.6241C34.7693 72.9491 35.7006 72.8895 36.0294 73.5277L36.8843 75.1871C37.4927 76.3683 39.1803 76.3716 39.7934 75.1929L40.7454 73.3625C41.5117 71.8893 43.4324 71.4626 44.77 72.4466C46.164 73.472 48.1691 72.987 48.9088 71.4226L51 67Z" fill="#0F0A0A" stroke="black" stroke-width="2"/>
<path d="M58 45H32L33.2859 54.4262C33.4455 55.5961 35.0732 55.7537 35.4543 54.6362C35.7772 53.6896 37.0848 53.6093 37.521 54.5093L38.6832 56.9075C39.4885 58.5691 41.854 58.5736 42.6656 56.915L43.9859 54.2167C45.0044 52.1353 47.6809 51.5197 49.5064 52.9471C51.375 54.4081 54.1191 53.724 55.0832 51.5568L58 45Z" fill="#0F0A0A" stroke="black" stroke-width="2"/>
<path d="M58 86H31L32.3367 96.0254C32.4993 97.2445 34.1981 97.4057 34.587 96.2389C34.9176 95.2471 36.2884 95.1643 36.7359 96.1091L37.9401 98.6514C38.7657 100.394 41.244 100.399 42.0761 98.6591L43.4664 95.752C44.506 93.5783 47.2989 92.9392 49.1804 94.4444C51.1054 95.9843 53.9674 95.2749 54.9503 93.0142L58 86Z" fill="#0F0A0A"/>
<path d="M31 86V65.5M31 86H58L54.9503 93.0142C53.9674 95.2749 51.1054 95.9843 49.1804 94.4444V94.4444C47.2989 92.9392 44.506 93.5783 43.4664 95.752L42.0761 98.6591C41.244 100.399 38.7657 100.394 37.9401 98.6514L36.7359 96.1091C36.2884 95.1643 34.9176 95.2471 34.587 96.2389V96.2389C34.1981 97.4057 32.4993 97.2445 32.3367 96.0254L31 86ZM58 45H31V55.25V65.5M31 65.5H53" stroke="black" stroke-width="2"/>
</svg>
