<svg width="316" height="59" viewBox="0 0 316 59" fill="none" xmlns="http://www.w3.org/2000/svg">
<path d="M13.5523 45.7598H9.89999L9.88046 43.748H12.9469C13.4872 43.748 13.9299 43.6797 14.275 43.543C14.62 43.3997 14.8772 43.1947 15.0465 42.9277C15.2223 42.6543 15.3102 42.3223 15.3102 41.9316C15.3102 41.4889 15.2255 41.1309 15.0562 40.8574C14.8935 40.584 14.6363 40.3854 14.2848 40.2617C13.9397 40.138 13.4937 40.0762 12.9469 40.0762H10.9156V52H7.98593V37.7812H12.9469C13.7737 37.7812 14.5126 37.8594 15.1637 38.0156C15.8212 38.1719 16.3779 38.4095 16.8336 38.7285C17.2893 39.0475 17.6376 39.4512 17.8785 39.9395C18.1194 40.4212 18.2398 40.9941 18.2398 41.6582C18.2398 42.2441 18.1064 42.7845 17.8394 43.2793C17.579 43.7741 17.1656 44.1777 16.5992 44.4902C16.0393 44.8027 15.3069 44.9753 14.4019 45.0078L13.5523 45.7598ZM13.4254 52H9.09921L10.2418 49.7148H13.4254C13.9397 49.7148 14.3596 49.6335 14.6852 49.4707C15.0107 49.3014 15.2516 49.0736 15.4078 48.7871C15.5641 48.5007 15.6422 48.1719 15.6422 47.8008C15.6422 47.3841 15.5706 47.0228 15.4273 46.7168C15.2906 46.4108 15.0693 46.1764 14.7633 46.0137C14.4573 45.8444 14.0536 45.7598 13.5523 45.7598H10.7301L10.7496 43.748H14.2652L14.9391 44.5391C15.8049 44.526 16.5016 44.679 17.0289 44.998C17.5628 45.3105 17.9501 45.7174 18.191 46.2188C18.4384 46.7201 18.5621 47.2572 18.5621 47.8301C18.5621 48.7415 18.3635 49.5098 17.9664 50.1348C17.5693 50.7533 16.9866 51.2188 16.2184 51.5312C15.4566 51.8438 14.5256 52 13.4254 52ZM42.8109 37.7812H45.7309V47.1758C45.7309 48.2695 45.4965 49.1908 45.0277 49.9395C44.5655 50.6882 43.9242 51.2513 43.1039 51.6289C42.2901 52.0065 41.3526 52.1953 40.2914 52.1953C39.2302 52.1953 38.2862 52.0065 37.4594 51.6289C36.6391 51.2513 35.9945 50.6882 35.5258 49.9395C35.0635 49.1908 34.8324 48.2695 34.8324 47.1758V37.7812H37.7621V47.1758C37.7621 47.8138 37.863 48.3346 38.0648 48.7383C38.2667 49.1419 38.5564 49.4382 38.934 49.627C39.3181 49.8158 39.7706 49.9102 40.2914 49.9102C40.8253 49.9102 41.2777 49.8158 41.6488 49.627C42.0264 49.4382 42.3129 49.1419 42.5082 48.7383C42.71 48.3346 42.8109 47.8138 42.8109 47.1758V37.7812ZM69.7453 48.2793C69.7453 48.0254 69.7062 47.7975 69.6281 47.5957C69.5565 47.3874 69.4198 47.1986 69.218 47.0293C69.0161 46.8535 68.7329 46.681 68.3684 46.5117C68.0038 46.3424 67.5318 46.1667 66.9523 45.9844C66.3078 45.776 65.6958 45.5417 65.1164 45.2812C64.5435 45.0208 64.0357 44.7181 63.593 44.373C63.1568 44.0215 62.8117 43.6146 62.5578 43.1523C62.3104 42.6901 62.1867 42.153 62.1867 41.541C62.1867 40.9486 62.3169 40.4115 62.5773 39.9297C62.8378 39.4414 63.2023 39.0247 63.6711 38.6797C64.1398 38.3281 64.6932 38.0579 65.3312 37.8691C65.9758 37.6803 66.6822 37.5859 67.4504 37.5859C68.4986 37.5859 69.4133 37.7747 70.1945 38.1523C70.9758 38.5299 71.5812 39.0475 72.0109 39.7051C72.4471 40.3626 72.6652 41.1146 72.6652 41.9609H69.7551C69.7551 41.5443 69.6672 41.1797 69.4914 40.8672C69.3221 40.5482 69.0617 40.2975 68.7102 40.1152C68.3651 39.9329 67.9289 39.8418 67.4016 39.8418C66.8937 39.8418 66.4706 39.9199 66.132 40.0762C65.7935 40.2259 65.5396 40.431 65.3703 40.6914C65.201 40.9453 65.1164 41.2318 65.1164 41.5508C65.1164 41.7917 65.175 42.0098 65.2922 42.2051C65.4159 42.4004 65.5982 42.5827 65.8391 42.752C66.0799 42.9212 66.3762 43.0807 66.7277 43.2305C67.0793 43.3802 67.4862 43.5267 67.9484 43.6699C68.7232 43.9043 69.4035 44.168 69.9894 44.4609C70.5819 44.7539 71.0767 45.0827 71.4738 45.4473C71.871 45.8118 72.1704 46.2253 72.3723 46.6875C72.5741 47.1497 72.675 47.6738 72.675 48.2598C72.675 48.8783 72.5546 49.4316 72.3137 49.9199C72.0728 50.4082 71.7245 50.8216 71.2687 51.1602C70.813 51.4987 70.2694 51.7559 69.6379 51.9316C69.0064 52.1074 68.3 52.1953 67.5187 52.1953C66.8156 52.1953 66.1223 52.1042 65.4387 51.9219C64.7551 51.7331 64.1333 51.4499 63.5734 51.0723C63.02 50.6947 62.5773 50.2129 62.2453 49.627C61.9133 49.041 61.7473 48.3477 61.7473 47.5469H64.6867C64.6867 47.9896 64.7551 48.3639 64.8918 48.6699C65.0285 48.9759 65.2206 49.2233 65.468 49.4121C65.7219 49.6009 66.0213 49.7376 66.3664 49.8223C66.718 49.9069 67.1021 49.9492 67.5187 49.9492C68.0266 49.9492 68.4432 49.8776 68.7687 49.7344C69.1008 49.5911 69.3449 49.3926 69.5012 49.1387C69.6639 48.8848 69.7453 48.5983 69.7453 48.2793ZM97.1094 47.2832H100.029C99.9707 48.2402 99.707 49.0898 99.2383 49.832C98.776 50.5742 98.1282 51.1536 97.2949 51.5703C96.4681 51.987 95.472 52.1953 94.3066 52.1953C93.3952 52.1953 92.5781 52.0391 91.8555 51.7266C91.1328 51.4076 90.5143 50.9518 90 50.3594C89.4922 49.7669 89.1048 49.0508 88.8379 48.2109C88.571 47.3711 88.4375 46.4303 88.4375 45.3887V44.4023C88.4375 43.3607 88.5742 42.4199 88.8476 41.5801C89.1276 40.7337 89.5247 40.0143 90.0391 39.4219C90.5599 38.8294 91.1816 38.3737 91.9043 38.0547C92.6269 37.7357 93.4342 37.5762 94.3262 37.5762C95.5111 37.5762 96.5104 37.791 97.3242 38.2207C98.1445 38.6504 98.7793 39.2428 99.2285 39.998C99.6842 40.7533 99.9577 41.6126 100.049 42.5762H97.1191C97.0866 42.0033 96.9726 41.5182 96.7773 41.1211C96.582 40.7174 96.2858 40.4147 95.8887 40.2129C95.498 40.0046 94.9772 39.9004 94.3262 39.9004C93.8379 39.9004 93.4115 39.9915 93.0469 40.1738C92.6823 40.3561 92.3763 40.6328 92.1289 41.0039C91.8815 41.375 91.696 41.8438 91.5723 42.4102C91.4551 42.9701 91.3965 43.6276 91.3965 44.3828V45.3887C91.3965 46.1243 91.4518 46.7721 91.5625 47.332C91.6732 47.8854 91.8424 48.3542 92.0703 48.7383C92.3047 49.1159 92.6042 49.4023 92.9687 49.5977C93.3398 49.7865 93.7858 49.8809 94.3066 49.8809C94.9186 49.8809 95.4232 49.7832 95.8203 49.5879C96.2174 49.3926 96.5202 49.1029 96.7285 48.7188C96.9434 48.3346 97.0703 47.8561 97.1094 47.2832ZM121.934 40.2129L118.067 52H114.952L120.235 37.7812H122.218L121.934 40.2129ZM125.147 52L121.27 40.2129L120.958 37.7812H122.96L128.272 52H125.147ZM124.971 46.707V49.002H117.462V46.707H124.971ZM143.791 37.7812H149.093C150.181 37.7812 151.115 37.944 151.896 38.2695C152.684 38.5951 153.289 39.0768 153.712 39.7148C154.136 40.3529 154.347 41.1374 154.347 42.0684C154.347 42.8301 154.217 43.4844 153.957 44.0312C153.703 44.5716 153.341 45.0241 152.873 45.3887C152.41 45.7467 151.867 46.0332 151.242 46.248L150.314 46.7363H145.705L145.685 44.4512H149.113C149.627 44.4512 150.054 44.36 150.392 44.1777C150.731 43.9954 150.985 43.7415 151.154 43.416C151.33 43.0905 151.418 42.7129 151.418 42.2832C151.418 41.8275 151.333 41.4336 151.164 41.1016C150.994 40.7695 150.737 40.5156 150.392 40.3398C150.047 40.1641 149.614 40.0762 149.093 40.0762H146.72V52H143.791V37.7812ZM151.74 52L148.498 45.6621L151.593 45.6426L154.875 51.8633V52H151.74ZM173.733 37.7812V52H170.803V37.7812H173.733ZM179.397 43.8555V46.1406H172.932V43.8555H179.397ZM180.08 37.7812V40.0762H172.932V37.7812H180.08ZM199.095 37.7812V52H196.175V37.7812H199.095ZM225.18 49.7148V52H218.021V49.7148H225.18ZM218.969 37.7812V52H216.039V37.7812H218.969ZM242.397 37.7812H244.878L248.53 48.2207L252.182 37.7812H254.663L249.526 52H247.534L242.397 37.7812ZM241.059 37.7812H243.53L243.979 47.957V52H241.059V37.7812ZM253.53 37.7812H256.011V52H253.081V47.957L253.53 37.7812ZM282.32 49.7148V52H274.752V49.7148H282.32ZM275.709 37.7812V52H272.779V37.7812H275.709ZM281.334 43.5723V45.7988H274.752V43.5723H281.334ZM282.31 37.7812V40.0762H274.752V37.7812H282.31ZM305.631 48.2793C305.631 48.0254 305.592 47.7975 305.514 47.5957C305.442 47.3874 305.306 47.1986 305.104 47.0293C304.902 46.8535 304.619 46.681 304.254 46.5117C303.89 46.3424 303.418 46.1667 302.838 45.9844C302.194 45.776 301.582 45.5417 301.002 45.2812C300.429 45.0208 299.922 44.7181 299.479 44.373C299.043 44.0215 298.698 43.6146 298.444 43.1523C298.196 42.6901 298.073 42.153 298.073 41.541C298.073 40.9486 298.203 40.4115 298.463 39.9297C298.724 39.4414 299.088 39.0247 299.557 38.6797C300.026 38.3281 300.579 38.0579 301.217 37.8691C301.862 37.6803 302.568 37.5859 303.336 37.5859C304.385 37.5859 305.299 37.7747 306.08 38.1523C306.862 38.5299 307.467 39.0475 307.897 39.7051C308.333 40.3626 308.551 41.1146 308.551 41.9609H305.641C305.641 41.5443 305.553 41.1797 305.377 40.8672C305.208 40.5482 304.948 40.2975 304.596 40.1152C304.251 39.9329 303.815 39.8418 303.288 39.8418C302.78 39.8418 302.357 39.9199 302.018 40.0762C301.679 40.2259 301.426 40.431 301.256 40.6914C301.087 40.9453 301.002 41.2318 301.002 41.5508C301.002 41.7917 301.061 42.0098 301.178 42.2051C301.302 42.4004 301.484 42.5827 301.725 42.752C301.966 42.9212 302.262 43.0807 302.614 43.2305C302.965 43.3802 303.372 43.5267 303.834 43.6699C304.609 43.9043 305.289 44.168 305.875 44.4609C306.468 44.7539 306.963 45.0827 307.36 45.4473C307.757 45.8118 308.056 46.2253 308.258 46.6875C308.46 47.1497 308.561 47.6738 308.561 48.2598C308.561 48.8783 308.441 49.4316 308.2 49.9199C307.959 50.4082 307.61 50.8216 307.155 51.1602C306.699 51.4987 306.155 51.7559 305.524 51.9316C304.892 52.1074 304.186 52.1953 303.405 52.1953C302.702 52.1953 302.008 52.1042 301.325 51.9219C300.641 51.7331 300.019 51.4499 299.459 51.0723C298.906 50.6947 298.463 50.2129 298.131 49.627C297.799 49.041 297.633 48.3477 297.633 47.5469H300.573C300.573 47.9896 300.641 48.3639 300.778 48.6699C300.914 48.9759 301.107 49.2233 301.354 49.4121C301.608 49.6009 301.907 49.7376 302.252 49.8223C302.604 49.9069 302.988 49.9492 303.405 49.9492C303.913 49.9492 304.329 49.8776 304.655 49.7344C304.987 49.5911 305.231 49.3926 305.387 49.1387C305.55 48.8848 305.631 48.5983 305.631 48.2793Z" fill="black"/>
<path d="M154 13.5H133M154 13.5L155 15L156.085 16.8075C157.264 18.7726 157.264 21.2274 156.085 23.1925V23.1925C155.412 24.3139 154.2 25 152.892 25H134C133.448 25 133 24.5523 133 24V13.5M154 13.5L155 11.5L156.035 9.63664C156.939 8.0098 156.888 6.02042 155.901 4.44226V4.44226C155.341 3.54505 154.357 3 153.299 3H134C133.448 3 133 3.44772 133 4V13.5" stroke="#E51B23" stroke-width="5"/>
<path d="M171 25V13.5M193 3H172C171.448 3 171 3.44772 171 4V13.5M188.5 13.5H171" stroke="#E51B23" stroke-width="5" stroke-miterlimit="16" stroke-linecap="round"/>
</svg>
