<svg width="128" height="192" viewBox="0 0 128 192" fill="none" xmlns="http://www.w3.org/2000/svg">
<rect width="128" height="192" fill="white" fill-opacity="0.7"/>
<g clip-path="url(#clip0_123_4)">
<path d="M76 83C76 79.6865 78.685 77 82 77C85.315 77 88 79.6865 88 83C88 86.315 85.315 89 82 89C78.685 89 76 86.315 76 83ZM40 111.208C40 110.42 40.2223 109.648 40.6413 108.98L56.8975 83.0758C57.3925 82.2815 58.2625 81.8 59.2 81.8C60.1375 81.8 61.0075 82.2815 61.51 83.0758L70.9525 98.1275L74.5675 92.2025C74.8075 91.7075 75.415 91.4 76 91.4C76.585 91.4 77.125 91.7075 77.4325 92.2025L87.3325 108.433C87.7675 109.145 88 109.978 88 110.818C88 113.345 85.945 115.4 83.4175 115.4H44.1933C41.8773 115.4 40 113.458 40 111.208Z" fill="#E5E7FF"/>
</g>
<defs>
<clipPath id="clip0_123_4">
<rect width="48" height="38.4" fill="white" transform="translate(40 77)"/>
</clipPath>
</defs>
</svg>
