<svg width="47" height="28" viewBox="0 0 47 28" fill="none" xmlns="http://www.w3.org/2000/svg">
<g clip-path="url(#clip0_420_2)">
<path d="M27.9999 20L28 2L12 2C10.8954 2 10 2.89543 10 4L10 18C10 19.1046 10.8954 20 12 20L27.9999 20Z" stroke="black" stroke-width="2" stroke-linecap="round" stroke-linejoin="round"/>
<path d="M28 6L10 6" stroke="black" stroke-width="2" stroke-linecap="round" stroke-linejoin="round"/>
<path d="M23.5 2L23.5 6" stroke="black" stroke-width="2" stroke-linecap="round" stroke-linejoin="round"/>
<path d="M19 2L19 20" stroke="black" stroke-width="2" stroke-linecap="round" stroke-linejoin="round"/>
<path d="M14.5 2L14.5 6" stroke="black" stroke-width="2" stroke-linecap="round" stroke-linejoin="round"/>
<path d="M28 16L10 16" stroke="black" stroke-width="2" stroke-linecap="round" stroke-linejoin="round"/>
<path d="M23.5 16L23.5 20" stroke="black" stroke-width="2" stroke-linecap="round" stroke-linejoin="round"/>
<path d="M14.5 16L14.5 20" stroke="black" stroke-width="2" stroke-linecap="round" stroke-linejoin="round"/>
<path d="M28.0001 1.99792L28 19.9979L44 19.9979C45.1046 19.9979 46 19.1025 46 17.9979L46 3.99792C46 2.89335 45.1046 1.99792 44 1.99792L28.0001 1.99792Z" stroke="black" stroke-width="2" stroke-linecap="round" stroke-linejoin="round"/>
<path d="M28 16.0233L46 16.0233" stroke="black" stroke-width="2" stroke-linecap="round" stroke-linejoin="round"/>
<path d="M32.5 19.9979L32.5 15.9979" stroke="black" stroke-width="2" stroke-linecap="round" stroke-linejoin="round"/>
<path d="M37 19.9979L37 1.99792" stroke="black" stroke-width="2" stroke-linecap="round" stroke-linejoin="round"/>
<path d="M41.5 19.9979L41.5 15.9979" stroke="black" stroke-width="2" stroke-linecap="round" stroke-linejoin="round"/>
<path d="M28 6.02332L46 6.02332" stroke="black" stroke-width="2" stroke-linecap="round" stroke-linejoin="round"/>
<path d="M32.5 6.02332L32.5 2.02331" stroke="black" stroke-width="2" stroke-linecap="round" stroke-linejoin="round"/>
<path d="M41.5 6.02332L41.5 2.02331" stroke="black" stroke-width="2" stroke-linecap="round" stroke-linejoin="round"/>
<path d="M15 25C10.5817 25 7 21.4183 7 17C7 12.5817 10.5817 9 15 9C19.4183 9 23 12.5817 23 17C23 21.4183 19.4183 25 15 25Z" stroke="#D01212" stroke-width="2" stroke-linecap="round" stroke-linejoin="round"/>
<path d="M4.99984 27L9.33984 22.66" stroke="#D01212" stroke-width="2" stroke-linecap="round" stroke-linejoin="round"/>
</g>
<defs>
<clipPath id="clip0_420_2">
<rect width="28" height="47" fill="white" transform="translate(47) rotate(90)"/>
</clipPath>
</defs>
</svg>
